<svg xmlns="http://www.w3.org/2000/svg" version="1.1" xmlns:xlink="http://www.w3.org/1999/xlink" width="512" height="512" x="0" y="0" viewBox="0 0 60 60" style="enable-background:new 0 0 512 512" xml:space="preserve" class=""><g><path d="M55 4h-2V3a3 3 0 0 0-6 0v1h-4V3a3 3 0 0 0-6 0v1h-4V3a3 3 0 0 0-6 0v1h-4V3a3 3 0 0 0-6 0v1h-4V3a3 3 0 0 0-6 0v1H5a5.006 5.006 0 0 0-5 5v38a5.006 5.006 0 0 0 5 5h5.35a6 6 0 1 0 11.3 0H55a5.006 5.006 0 0 0 5-5V9a5.006 5.006 0 0 0-5-5Zm-6-1a1 1 0 0 1 2 0v4a1 1 0 0 1-2 0ZM39 3a1 1 0 0 1 2 0v4a1 1 0 0 1-2 0ZM29 3a1 1 0 0 1 2 0v4a1 1 0 0 1-2 0ZM19 3a1 1 0 0 1 2 0v4a1 1 0 0 1-2 0ZM9 3a1 1 0 0 1 2 0v4a1 1 0 0 1-2 0ZM5 6h2v1a3 3 0 0 0 6 0V6h4v1a3 3 0 0 0 6 0V6h4v1a3 3 0 0 0 6 0V6h4v1a3 3 0 0 0 6 0V6h4v1a3 3 0 0 0 6 0V6h2a3 3 0 0 1 3 3v3H2V9a3 3 0 0 1 3-3Zm11 52a4 4 0 1 1 4-4 4 4 0 0 1-4 4Zm39-8H20.46A6 6 0 0 0 17 48.09V38a3 3 0 0 0-3-3h-1.5a1.5 1.5 0 0 1 0-3h5.551a11.99 11.99 0 0 0 23.9 0H43a1 1 0 0 1 1 1v6.5a3.5 3.5 0 0 0 7 0v-9.59A6.006 6.006 0 0 0 56 24v-6a2 2 0 0 0-2-2h-1a1 1 0 0 0 0 2h1v6a4 4 0 0 1-8 0v-6h1a1 1 0 0 0 0-2h-1a2 2 0 0 0-2 2v6a6.006 6.006 0 0 0 5 5.91v9.59a1.5 1.5 0 0 1-3 0V33a3 3 0 0 0-3-3h-1.051a11.99 11.99 0 0 0-23.9 0H12.5a3.5 3.5 0 0 0 0 7H14a1 1 0 0 1 1 1v10.09A6 6 0 0 0 11.54 50H5a3 3 0 0 1-3-3V14h56v33a3 3 0 0 1-3 3ZM20 31a10 10 0 1 1 10 10 10.011 10.011 0 0 1-10-10Z" fill="#000000" opacity="1" data-original="#000000" class=""></path><path d="M27 34v3a2 2 0 0 0 2 2h2a2 2 0 0 0 2-2v-3h3a2 2 0 0 0 2-2v-2a2 2 0 0 0-2-2h-3v-3a2 2 0 0 0-2-2h-2a2 2 0 0 0-2 2v3h-3a2 2 0 0 0-2 2v2a2 2 0 0 0 2 2Zm-3-4h4a1 1 0 0 0 1-1v-4h2v4a1 1 0 0 0 1 1h4v2h-4a1 1 0 0 0-1 1v4h-2v-4a1 1 0 0 0-1-1h-4Z" fill="#000000" opacity="1" data-original="#000000" class=""></path></g></svg>