<svg xmlns="http://www.w3.org/2000/svg" version="1.1" xmlns:xlink="http://www.w3.org/1999/xlink" width="512" height="512" x="0" y="0" viewBox="0 0 64 64" style="enable-background:new 0 0 512 512" xml:space="preserve" class=""><g><path d="m61.13 36.21-2.35-.78A26.33 26.33 0 0 0 59 32a26.6 26.6 0 0 0-.22-3.44l2.35-.77a2 2 0 0 0 1.28-2.52l-1.85-5.7a2 2 0 0 0-1-1.17 2 2 0 0 0-1.56-.12l-2.32.72a26.62 26.62 0 0 0-4-5.56l1.45-2a2 2 0 0 0-.44-2.8l-4.9-3.48A2 2 0 0 0 45 5.6l-1.46 2A26.47 26.47 0 0 0 37 5.47V3a2 2 0 0 0-2-2h-6a2 2 0 0 0-2 2v2.47a26.35 26.35 0 0 0-6.55 2.13L19 5.6a2 2 0 0 0-2.79-.44l-4.86 3.52a2 2 0 0 0-.44 2.8l1.44 2a26.73 26.73 0 0 0-4 5.57L6 18.28a2 2 0 0 0-2.52 1.29l-1.85 5.7a2 2 0 0 0 1.28 2.52l2.35.78A26.33 26.33 0 0 0 5 32a26.6 26.6 0 0 0 .22 3.44l-2.35.77a2 2 0 0 0-1.28 2.52l1.85 5.7a2 2 0 0 0 1 1.17 2 2 0 0 0 1.56.12L8.32 45a26.62 26.62 0 0 0 4 5.56l-1.45 2a2 2 0 0 0 .44 2.8l4.86 3.52A2 2 0 0 0 19 58.4l1.46-2A26.47 26.47 0 0 0 27 58.53V61a2 2 0 0 0 2 2h6a2 2 0 0 0 2-2v-2.47a26.35 26.35 0 0 0 6.54-2.13l1.45 2a2 2 0 0 0 2.79.44l4.86-3.52a2 2 0 0 0 .44-2.8l-1.44-2a26.73 26.73 0 0 0 4-5.57l2.36.77a2 2 0 0 0 2.52-1.29l1.85-5.7a2 2 0 0 0-1.24-2.52Zm-2.48 7.6-2.35-.76a2 2 0 0 0-2.37 1 25.29 25.29 0 0 1-3.74 5.15 2 2 0 0 0-.19 2.5l1.45 2-4.85 3.52-1.45-2a2 2 0 0 0-2.49-.62 24.55 24.55 0 0 1-6 2 2 2 0 0 0-1.64 2V61H29v-2.47a2 2 0 0 0-1.64-2 24.76 24.76 0 0 1-6.05-2 2 2 0 0 0-2.47.62l-1.46 2-4.85-3.45 1.45-2a2 2 0 0 0-.17-2.55A25.29 25.29 0 0 1 10.07 44a2 2 0 0 0-2.37-1l-2.35.77-1.86-5.66 2.35-.77a2 2 0 0 0 1.36-2.16 25.38 25.38 0 0 1 0-6.36 2 2 0 0 0-1.36-2.16l-2.35-.77 1.86-5.7L7.7 21a2 2 0 0 0 2.37-1 25.29 25.29 0 0 1 3.74-5.15A2 2 0 0 0 14 12.3l-1.45-2 4.85-3.52 1.45 2a2 2 0 0 0 2.49.62 24.55 24.55 0 0 1 6-2 2 2 0 0 0 1.64-2V3h6v2.47a2 2 0 0 0 1.64 2 24.76 24.76 0 0 1 6 2 2 2 0 0 0 2.47-.62l1.46-2 4.85 3.53L50 12.3a2 2 0 0 0 .17 2.55A25.29 25.29 0 0 1 53.93 20a2 2 0 0 0 2.37 1l2.35-.77 1.86 5.71-2.35.77a2 2 0 0 0-1.36 2.16 25.38 25.38 0 0 1 0 6.36 2 2 0 0 0 1.36 2.16l2.35.77Z" fill="#000000" opacity="1" data-original="#000000" class=""></path><path d="M18.56 18.56a19.11 19.11 0 0 1 24.52-2H40.3v2h6.1a1 1 0 0 0 .94-1.34l-2.08-5.74-1.88.69 1 2.89A21 21 0 0 0 14 42.89l1.71-1a19 19 0 0 1 2.85-23.33ZM48.25 22.15A19 19 0 0 1 21 47.43h2.77v-2h-6.1a1 1 0 0 0-.94 1.35l2.08 5.73 1.88-.68-1.06-2.91A21 21 0 0 0 50 21.11Z" fill="#000000" opacity="1" data-original="#000000" class=""></path><path d="M18 34v5a1 1 0 0 0 1 1h7a1 1 0 0 0 1 1h10a1 1 0 0 0 1-1h7a1 1 0 0 0 1-1v-5a4 4 0 0 0-2.8-3.8 3.5 3.5 0 1 0-4.4 0 4 4 0 0 0-1.66 1 5 5 0 0 0-2.78-2 4 4 0 1 0-4.72 0 5 5 0 0 0-2.78 2 4 4 0 0 0-1.66-1 3.5 3.5 0 1 0-4.4 0A4 4 0 0 0 18 34Zm23-8a1.5 1.5 0 1 1-1.5 1.5A1.5 1.5 0 0 1 41 26Zm-3 8a2 2 0 0 1 2-2h2a2 2 0 0 1 2 2v4h-6Zm-6-10a2 2 0 1 1-2 2 2 2 0 0 1 2-2Zm-4 10a3 3 0 0 1 3-3h2a3 3 0 0 1 3 3v5h-8Zm-5-8a1.5 1.5 0 1 1-1.5 1.5A1.5 1.5 0 0 1 23 26Zm-3 8a2 2 0 0 1 2-2h2a2 2 0 0 1 2 2v4h-6Z" fill="#000000" opacity="1" data-original="#000000" class=""></path></g></svg>